<svg xmlns="http://www.w3.org/2000/svg" width="79.504" height="82.72" viewBox="0 0 79.504 82.72">
  <g id="Group_44539" data-name="Group 44539" transform="translate(-926.734 -397.95)">
    <g id="Group_44530" data-name="Group 44530">
      <g id="Group_44491" data-name="Group 44491" transform="translate(895.225 382.34)">
        <path id="Path_38811" data-name="Path 38811" d="M103.454,39.787a1.278,1.278,0,0,0-1.18-.789H92.052V33.888a1.277,1.277,0,0,0-1.235-1.276,24.285,24.285,0,0,0-46.082,0A1.277,1.277,0,0,0,43.5,33.888V39H33.278a1.278,1.278,0,0,0-.9,2.181l5.485,5.485L32.374,52.15a1.278,1.278,0,0,0,.9,2.181H47.989a24.579,24.579,0,0,0,2.839,3.323L34.754,83.034a1.278,1.278,0,0,0,1.26,1.948l7.841-1.12L46.1,91.735a1.278,1.278,0,0,0,2.308.333L65.884,64.48q.939.071,1.891.073t1.891-.073L87.139,92.068a1.278,1.278,0,0,0,2.308-.333L91.7,83.863l7.841,1.12a1.278,1.278,0,0,0,1.26-1.948L84.723,57.654a24.572,24.572,0,0,0,2.839-3.323h14.711a1.278,1.278,0,0,0,.9-2.181l-5.485-5.485,5.485-5.485A1.278,1.278,0,0,0,103.454,39.787Zm-57.4,5.6V35.165H89.5V45.387Zm35,2.555a15.337,15.337,0,0,1-26.562,0ZM54.494,32.61a15.338,15.338,0,0,1,26.562,0ZM67.776,18.555A21.834,21.834,0,0,1,88.1,32.61H83.939a17.891,17.891,0,0,0-32.328,0H47.447A21.836,21.836,0,0,1,67.776,18.555ZM36.362,51.775l4.207-4.207a1.278,1.278,0,0,0,0-1.807h0l-4.207-4.207H43.5v5.111a1.277,1.277,0,0,0,1.236,1.276A24.106,24.106,0,0,0,46.4,51.775ZM47.778,88.293l-1.772-6.2a1.279,1.279,0,0,0-1.409-.914l-6.2.886,14.377-22.7c.1.076.193.152.29.226a24.443,24.443,0,0,0,3.5,2.231l-3.906,5.859,2.126,1.417,4.135-6.2A23.9,23.9,0,0,0,63.1,64.1Zm49.378-6.231-6.2-.886a1.278,1.278,0,0,0-1.409.914l-1.772,6.2L72.454,64.1a23.888,23.888,0,0,0,4.178-1.213l4.135,6.2,2.126-1.417-3.906-5.859a24.461,24.461,0,0,0,3.507-2.234c.1-.073.19-.148.285-.222ZM67.776,62A21.836,21.836,0,0,1,47.447,47.942h4.165a17.892,17.892,0,0,0,32.328,0H88.1A21.834,21.834,0,0,1,67.776,62ZM94.982,45.761a1.278,1.278,0,0,0,0,1.807h0l4.207,4.207H89.152a24.122,24.122,0,0,0,1.664-3.835,1.277,1.277,0,0,0,1.235-1.276V41.554h7.137Z" transform="translate(0 0)" stroke="#fff" stroke-width="0.78"/>
        <rect id="Rectangle_66426" data-name="Rectangle 66426" width="5" height="3" transform="translate(51.552 39)" stroke="#fff" stroke-width="0.78"/>
        <rect id="Rectangle_66427" data-name="Rectangle 66427" width="3" height="3" transform="translate(58.552 39)" stroke="#fff" stroke-width="0.78"/>
        <rect id="Rectangle_66428" data-name="Rectangle 66428" width="3" height="3" transform="translate(63.552 39)" stroke="#fff" stroke-width="0.78"/>
        <rect id="Rectangle_66429" data-name="Rectangle 66429" width="7" height="3" transform="translate(69.552 39)" stroke="#fff" stroke-width="0.78"/>
        <rect id="Rectangle_66430" data-name="Rectangle 66430" width="5" height="3" transform="translate(79.552 39)" stroke="#fff" stroke-width="0.78"/>
      </g>
      <g id="Group_44492" data-name="Group 44492" transform="translate(931.65 401.281)">
        <path id="Path_38797" data-name="Path 38797" d="M67.1,60.232A14.022,14.022,0,0,0,53.078,74.255h0a14.024,14.024,0,0,0,28.047,0h0A14.024,14.024,0,0,0,67.1,60.231h0Zm-3.84,9,3.84,3.84,3.839-3.84,1.181,1.181-3.839,3.839L72.121,78.1,70.94,79.276,67.1,75.437l-3.84,3.84L62.08,78.1l3.84-3.841-3.84-3.839,1.181-1.181Z" transform="translate(-6.538 -8.891)" fill="#20aeaa"/>
        <circle id="Ellipse_1394" data-name="Ellipse 1394" cx="9" cy="9" r="9" transform="translate(52.35 57.121)" fill="#20aeaa"/>
      </g>
    </g>
    <path id="Path_38812" data-name="Path 38812" d="M21.1,9.1l-8.93,8.93-3.18-3.18a.765.765,0,0,0-1.081,0l0,0a.763.763,0,0,0,0,1.07l3.731,3.807a.782.782,0,0,0,.535.229.839.839,0,0,0,.581-.229l9.465-9.465a.768.768,0,1,0-1.086-1.086h0Z" transform="translate(976.936 452.52)" fill="#fff"/>
  </g>
</svg>
