<svg xmlns="http://www.w3.org/2000/svg" width="61.237" height="73.191" viewBox="0 0 61.237 73.191">
  <g id="Group_44469" data-name="Group 44469" transform="translate(-13.35 -6.196)">
    <path id="Path_38789" data-name="Path 38789" d="M13.35,6.2V74.7H47.385a15.932,15.932,0,0,1-1.054-1.671H15.021V7.867H63.476v41.6a15.835,15.835,0,0,1,1.671.4V6.2Z" fill="#191e35"/>
    <path id="Path_38790" data-name="Path 38790" d="M28.512,54.008v1.669H54.977V54.008Z" transform="translate(-2.495 -7.868)" fill="#191e35"/>
    <path id="Path_38791" data-name="Path 38791" d="M28.512,61.819v1.669H51.263a16.335,16.335,0,0,1,1.813-1.669Z" transform="translate(-2.495 -9.154)" fill="#191e35"/>
    <path id="Path_38792" data-name="Path 38792" d="M38.325,35.526v5.217H48.394V35.526H46.726v3.547H39.993V35.526Z" transform="translate(-4.11 -4.827)" fill="#191e35"/>
    <path id="Path_38793" data-name="Path 38793" d="M43.772,29.19a2.934,2.934,0,1,0,2.936,2.934A2.945,2.945,0,0,0,43.772,29.19Zm0,1.668a1.266,1.266,0,1,1-1.267,1.266A1.251,1.251,0,0,1,43.772,30.858Z" transform="translate(-4.524 -3.784)" fill="#191e35"/>
    <path id="Path_38794" data-name="Path 38794" d="M42.258,22.765A10.622,10.622,0,1,0,52.882,33.387,10.634,10.634,0,0,0,42.258,22.765Zm0,1.668A8.955,8.955,0,1,1,33.3,33.387,8.942,8.942,0,0,1,42.258,24.433Z" transform="translate(-3.009 -2.727)" fill="#191e35"/>
    <path id="Path_38795" data-name="Path 38795" d="M28.512,69.63V71.3H47.538a16,16,0,0,1,.579-1.669Z" transform="translate(-2.495 -10.439)" fill="#191e35"/>
    <path id="Path_38796" data-name="Path 38796" d="M42.294,22.981A10.441,10.441,0,1,0,52.736,33.422,10.451,10.451,0,0,0,42.294,22.981Zm0,1.3a9.136,9.136,0,1,1-9.136,9.136A9.126,9.126,0,0,1,42.294,24.286Z" transform="translate(-3.045 -2.762)" fill="none"/>
    <path id="Path_38797" data-name="Path 38797" d="M67.1,60.232A14.022,14.022,0,0,0,53.078,74.255h0a14.024,14.024,0,0,0,28.047,0h0A14.024,14.024,0,0,0,67.1,60.231h0Zm-3.84,9,3.84,3.84,3.839-3.84,1.181,1.181-3.839,3.839L72.121,78.1,70.94,79.276,67.1,75.437l-3.84,3.84L62.08,78.1l3.84-3.841-3.84-3.839,1.181-1.181Z" transform="translate(-6.538 -8.892)" fill="#20aeaa"/>
    <circle id="Ellipse_1394" data-name="Ellipse 1394" cx="9" cy="9" r="9" transform="translate(52.35 57.12)" fill="#20aeaa"/>
    <path id="Path_38779" data-name="Path 38779" d="M21.1,9.1l-8.93,8.93-3.18-3.18a.765.765,0,0,0-1.081,0l0,0a.763.763,0,0,0,0,1.07l3.731,3.807a.782.782,0,0,0,.535.229.839.839,0,0,0,.581-.229l9.465-9.465a.768.768,0,1,0-1.086-1.086h0Z" transform="translate(46.286 50.238)" fill="#fff"/>
  </g>
</svg>
