<svg xmlns="http://www.w3.org/2000/svg" width="60.366" height="70.525" viewBox="0 0 60.366 70.525">
  <g id="Group_44520" data-name="Group 44520" transform="translate(-930 -339.076)">
    <g id="Group_44469" data-name="Group 44469" transform="translate(916.65 332.88)">
      <path id="Path_38789" data-name="Path 38789" d="M13.35,6.2V74.7H47.385a15.932,15.932,0,0,1-1.054-1.671H15.021V7.867H63.476v41.6a15.835,15.835,0,0,1,1.671.4V6.2Z" fill="#191e35"/>
      <path id="Path_38790" data-name="Path 38790" d="M28.512,54.008v1.669H54.977V54.008Z" transform="translate(-2.495 -7.868)" fill="#191e35"/>
      <path id="Path_38791" data-name="Path 38791" d="M28.512,61.819v1.669H51.263a16.335,16.335,0,0,1,1.813-1.669Z" transform="translate(-2.495 -9.154)" fill="#191e35"/>
      <path id="Path_38792" data-name="Path 38792" d="M38.325,35.526v5.217H48.394V35.526H46.726v3.547H39.993V35.526Z" transform="translate(-4.11 -4.827)" fill="#191e35"/>
      <path id="Path_38793" data-name="Path 38793" d="M43.772,29.19a2.934,2.934,0,1,0,2.936,2.934A2.945,2.945,0,0,0,43.772,29.19Zm0,1.668a1.266,1.266,0,1,1-1.267,1.266A1.251,1.251,0,0,1,43.772,30.858Z" transform="translate(-4.524 -3.784)" fill="#191e35"/>
      <path id="Path_38794" data-name="Path 38794" d="M42.258,22.765A10.622,10.622,0,1,0,52.882,33.387,10.634,10.634,0,0,0,42.258,22.765Zm0,1.668A8.955,8.955,0,1,1,33.3,33.387,8.942,8.942,0,0,1,42.258,24.433Z" transform="translate(-3.009 -2.727)" fill="#191e35"/>
      <path id="Path_38795" data-name="Path 38795" d="M28.512,69.63V71.3H47.538a16,16,0,0,1,.579-1.669Z" transform="translate(-2.495 -10.439)" fill="#191e35"/>
      <path id="Path_38796" data-name="Path 38796" d="M42.294,22.981A10.441,10.441,0,1,0,52.736,33.422,10.451,10.451,0,0,0,42.294,22.981Zm0,1.3a9.136,9.136,0,1,1-9.136,9.136A9.126,9.126,0,0,1,42.294,24.286Z" transform="translate(-3.045 -2.762)" fill="none"/>
    </g>
    <path id="Path_38810" data-name="Path 38810" d="M91.545,81.551l-1.751-2.016c.4-.678,1-1.558,1.33-2.24a.732.732,0,0,0-.353-.973l-2.417-1.128.3-2.517a.733.733,0,0,0-.715-.818l-2.666-.047-.75-2.418a.735.735,0,0,0-.984-.459l-2.458,1.043L79.433,68.1h0a.734.734,0,0,0-1.113-.046L76.5,70,74.238,68.96a.735.735,0,0,0-1.038.41l-.87,2.523-2.467-.033a.738.738,0,0,0-.805.794l.232,2.659-2.323,1a.733.733,0,0,0-.353,1.03l1.293,2.334L66.226,81.49a.734.734,0,0,0,.054,1.126l2.13,1.607-.815,2.4a.734.734,0,0,0,.531.95l2.6.6.227,2.477a.734.734,0,0,0,.871.7l2.622-.509,1.236,2.208a.732.732,0,0,0,1.059.245l2.185-1.529,2.031,1.516a.734.734,0,0,0,1.067-.211L83.4,90.78l2.418.548a.736.736,0,0,0,.943-.614l.326-2.647,2.48-.494a.732.732,0,0,0,.56-.93l-.779-2.552,2.068-1.461A.735.735,0,0,0,91.545,81.551ZM84.9,77.735l-6.442,7.141a1.046,1.046,0,0,1-1.552.08L72.85,80.9a1.047,1.047,0,0,1,1.48-1.48L77.607,82.7l5.739-6.362A1.045,1.045,0,0,1,84.9,77.735Z" transform="translate(898.645 316.179)" fill="#005baa"/>
  </g>
</svg>
