<svg xmlns="http://www.w3.org/2000/svg" width="19.097" height="22.906" viewBox="0 0 19.097 22.906">
  <g id="Group_44010" data-name="Group 44010" transform="translate(-136.975 -229.865)">
    <path id="Path_20112" data-name="Path 20112" d="M268.333,233.871a.476.476,0,0,1-.476-.476v-1.6a.952.952,0,1,0-1.9,0v1.6a.476.476,0,1,1-.952,0v-1.6a1.9,1.9,0,1,1,3.809,0v1.6a.476.476,0,0,1-.476.476Zm0,0" transform="translate(-120.381 0)" fill="#fff" stroke="#fff" stroke-width="0.05"/>
    <path id="Path_20113" data-name="Path 20113" d="M244.333,553.7A3.337,3.337,0,0,1,241,550.366a.476.476,0,0,1,.952,0,2.381,2.381,0,1,0,4.762,0,.476.476,0,0,1,.952,0,3.337,3.337,0,0,1-3.333,3.333Zm0,0" transform="translate(-97.81 -300.953)" fill="#fff" stroke="#fff" stroke-width="0.05"/>
    <path id="Path_20114" data-name="Path 20114" d="M154.618,295.032h-16.19a1.429,1.429,0,0,1-.929-2.514,6.621,6.621,0,0,0,2.357-5.068v-2.893a6.666,6.666,0,1,1,13.333,0v2.893a6.613,6.613,0,0,0,2.349,5.062,1.429,1.429,0,0,1-.921,2.521Zm-8.095-16.19a5.72,5.72,0,0,0-5.714,5.714v2.893a7.565,7.565,0,0,1-2.687,5.789.476.476,0,0,0,.306.841h16.19a.476.476,0,0,0,.309-.838,7.572,7.572,0,0,1-2.69-5.792v-2.893a5.72,5.72,0,0,0-5.714-5.714Zm0,0" transform="translate(0 -45.143)" fill="#fff" stroke="#fff" stroke-width="0.05"/>
  </g>
</svg>
