<svg id="Group_44209" data-name="Group 44209" xmlns="http://www.w3.org/2000/svg" width="129.293" height="87.43" viewBox="0 0 129.293 87.43">
  <g id="Group_44184" data-name="Group 44184" transform="translate(0.202 58.331)">
    <path id="Path_20220" data-name="Path 20220" d="M65.372,78.479a3.933,3.933,0,0,1-1.5-3.283A4.015,4.015,0,0,1,65.349,72.1a5.883,5.883,0,0,1,3.937-1.147,11.452,11.452,0,0,1,1.689.132,10.933,10.933,0,0,0,1.175.147c.132.01.132.078.132.143,0,.088-.037.357-.058.737s-.013,1.029-.037,1.307c-.012.167-.037.267-.142.267s-.132-.078-.143-.233a1.6,1.6,0,0,0-.454-1.1,3.469,3.469,0,0,0-2.4-.7,2.645,2.645,0,0,0-1.747.535,3.544,3.544,0,0,0-1.047,2.824c0,2.3,1.33,3.841,3.328,3.841a2.54,2.54,0,0,0,2.047-.57,1.647,1.647,0,0,0,.39-.749c.062-.232.1-.31.192-.31s.1.108.1.2a15.337,15.337,0,0,1-.262,1.7c-.027.168-.108.258-.308.325a8.225,8.225,0,0,1-6.364-.972" transform="translate(-63.873 -70.956)" fill="#fff"/>
  </g>
  <g id="Group_44185" data-name="Group 44185" transform="translate(9.63 58.329)">
    <path id="Path_20221" data-name="Path 20221" d="M77.151,75.61c0-1.854-.82-3.963-2.926-3.963-1.092,0-2.318.569-2.318,3.216,0,2.109.94,4.13,2.984,4.13.737,0,2.259-.3,2.259-3.383m-7.623-.245c0-2.234,1.594-4.41,5.09-4.41,3.021,0,4.912,1.9,4.912,4.163,0,2.6-1.879,4.59-4.994,4.59-3.51,0-5.009-2.368-5.009-4.343" transform="translate(-69.528 -70.955)" fill="#fff"/>
  </g>
  <g id="Group_44186" data-name="Group 44186" transform="translate(19.931 58.306)">
    <path id="Path_20222" data-name="Path 20222" d="M86.944,78.12c.1.725.213,1.005.607,1.117a3.492,3.492,0,0,0,.677.1c.153,0,.225.035.225.112,0,.092-.093.113-.285.113-.987,0-1.949,0-3.306-.068-.223-.01-.272-.078-.272-.133s.048-.088.13-.112c.19-.065.2-.133.153-.635l-.427-4L82,78.924c-.322.569-.393.637-.489.637-.132,0-.2-.113-.534-.6-.419-.625-1.144-1.9-1.6-2.613-.2-.323-.725-1.239-.952-1.619l-.343,3.15a8.184,8.184,0,0,0-.047.892.44.44,0,0,0,.415.515,3.27,3.27,0,0,0,.442.053c.177,0,.213.035.213.1,0,.09-.048.123-.24.123-.522,0-1.177-.033-1.532-.033s-.927.033-1.367.033c-.118,0-.262,0-.262-.113,0-.063.072-.112.238-.112.1-.01.223-.01.355-.032.347-.067.465-.325.584-1.06l1.082-6.866c.047-.337.13-.437.248-.437s.213.113.464.457l3.4,5.349,3.258-5.4c.192-.288.287-.4.407-.4s.19.157.225.437Z" transform="translate(-75.706 -70.941)" fill="#fff"/>
  </g>
  <g id="Group_44187" data-name="Group 44187" transform="translate(32.179 58.306)">
    <path id="Path_20223" data-name="Path 20223" d="M94.29,78.12c.1.725.213,1.005.607,1.117a3.51,3.51,0,0,0,.677.1c.155,0,.225.035.225.112,0,.092-.1.113-.283.113-.989,0-1.949,0-3.306-.068-.225-.01-.273-.078-.273-.133s.048-.088.13-.112c.192-.065.2-.133.155-.635l-.427-4-2.451,4.312c-.322.569-.392.637-.487.637-.132,0-.2-.113-.537-.6-.415-.625-1.14-1.9-1.592-2.613-.2-.323-.725-1.239-.952-1.619l-.343,3.15a7.9,7.9,0,0,0-.048.892.44.44,0,0,0,.415.515,3.27,3.27,0,0,0,.442.053c.177,0,.213.035.213.1,0,.09-.048.123-.238.123-.522,0-1.177-.033-1.534-.033s-.927.033-1.367.033c-.118,0-.262,0-.262-.113,0-.063.072-.112.238-.112.1-.01.225-.01.355-.032.347-.067.465-.325.584-1.06l1.084-6.866c.045-.337.13-.437.248-.437s.213.113.464.457l3.4,5.349,3.258-5.4c.19-.288.285-.4.405-.4s.19.157.227.437Z" transform="translate(-83.052 -70.941)" fill="#fff"/>
  </g>
  <g id="Group_44188" data-name="Group 44188" transform="translate(44.44 58.484)">
    <path id="Path_20224" data-name="Path 20224" d="M93.689,75.962c0,1.541.25,2.188.9,2.623a2.343,2.343,0,0,0,2.5-.1c.669-.537.669-1.709.669-2.859V74.286c0-1.641,0-1.931-.027-2.289-.022-.423-.117-.612-.51-.68-.132-.02-.2-.02-.44-.045-.155,0-.213-.043-.213-.112s.058-.112.272-.112c.679,0,1.4.033,1.594.033.215,0,.987-.033,1.571-.033.178,0,.25.033.25.112,0,.057-.048.1-.2.112a2.65,2.65,0,0,0-.368.045c-.322.057-.417.225-.452.68-.025.358-.037.649-.037,2.289v1.1c0,1.272-.06,2.644-1.214,3.526a3.944,3.944,0,0,1-2.474.739,4.432,4.432,0,0,1-2.828-.749,3.357,3.357,0,0,1-1.107-2.914v-1.7c0-1.731,0-2.042-.035-2.4-.025-.313-.1-.459-.37-.537a3.022,3.022,0,0,0-.51-.078c-.178-.01-.25-.055-.25-.123s.1-.1.322-.1c.512,0,1.712.033,1.821.033s1.509-.033,1.937-.033c.2,0,.26.033.26.1,0,.09-.06.113-.213.123-.108.012-.273.025-.392.045-.333.068-.392.3-.415.659s-.037.882-.037,2.311Z" transform="translate(-90.406 -71.048)" fill="#fff"/>
  </g>
  <g id="Group_44189" data-name="Group 44189" transform="translate(54.573 58.317)">
    <path id="Path_20225" data-name="Path 20225" d="M97.767,71.485c.013-.337.058-.537.2-.537.1,0,.155.033.464.268.5.39,1.119.949,3.841,3.293,1.214,1.049,2.034,1.8,2.354,2.066l-.072-4.187c-.023-.625-.082-.917-.557-1a4.319,4.319,0,0,0-.525-.055c-.153,0-.213-.053-.213-.112,0-.078.108-.112.237-.112.479,0,1.249.033,1.724.033.263,0,.857-.033,1.357-.033.178,0,.262.033.262.1s-.06.122-.2.122a1.219,1.219,0,0,0-.3.035c-.393.043-.512.233-.549.925-.1,2.244-.1,4.478-.142,6.723,0,.569-.085.692-.238.692-.192,0-.559-.268-1.332-.905-.807-.67-1.854-1.552-2.568-2.166-.667-.57-1.854-1.617-2.724-2.411l.118,3.806c.025.8.073,1.107.405,1.215a3.059,3.059,0,0,0,.632.08c.178.012.237.045.237.112,0,.09-.1.112-.285.112-.417,0-.8-.022-1.536-.035-.273,0-1.152.035-1.614.035-.168,0-.263-.022-.263-.112,0-.067.058-.112.227-.112.105-.012.26-.012.39-.032.467-.068.525-.348.56-1.386.06-2.3.037-4.99.107-6.431" transform="translate(-96.483 -70.948)" fill="#fff"/>
  </g>
  <g id="Group_44190" data-name="Group 44190" transform="translate(65.727 58.484)">
    <path id="Path_20226" data-name="Path 20226" d="M104.222,74.286c0-1.731,0-2.054-.037-2.413-.025-.312-.155-.514-.417-.557a2.264,2.264,0,0,0-.357-.045c-.142,0-.227-.043-.227-.122s.06-.1.262-.1c.477,0,1.641.035,1.736.035s1.514-.035,1.939-.035c.2,0,.263.047.263.112,0,.092-.108.112-.227.112s-.19.012-.345.033c-.308.055-.428.2-.452.6-.035.358-.035.647-.035,2.378v1.966c0,.882.012,1.921.058,2.391.023.288.1.489.452.567a3.719,3.719,0,0,0,.524.055c.2,0,.25.048.25.112s-.062.113-.25.113c-.809,0-2.081-.033-2.186-.033-.062,0-1.309.033-1.714.033-.19,0-.287-.022-.287-.113,0-.077.1-.112.238-.112.118-.01.24-.02.367-.043.252-.033.335-.278.37-.6.048-.469.073-1.272.073-2.366Z" transform="translate(-103.173 -71.048)" fill="#fff"/>
  </g>
  <g id="Group_44191" data-name="Group 44191" transform="translate(70.869 58.331)">
    <path id="Path_20227" data-name="Path 20227" d="M107.758,78.479a3.934,3.934,0,0,1-1.5-3.283,4.012,4.012,0,0,1,1.477-3.093,5.877,5.877,0,0,1,3.937-1.147,11.471,11.471,0,0,1,1.689.132,10.934,10.934,0,0,0,1.175.147c.132.01.132.078.132.143,0,.088-.037.357-.06.737s-.013,1.029-.037,1.307c-.01.167-.035.267-.142.267s-.13-.078-.143-.233a1.6,1.6,0,0,0-.452-1.1,3.474,3.474,0,0,0-2.4-.7,2.648,2.648,0,0,0-1.747.535,3.549,3.549,0,0,0-1.047,2.824c0,2.3,1.332,3.841,3.33,3.841a2.534,2.534,0,0,0,2.046-.57,1.648,1.648,0,0,0,.392-.749c.062-.232.1-.31.19-.31s.1.108.1.2a15.03,15.03,0,0,1-.263,1.7c-.025.168-.107.258-.308.325a8.221,8.221,0,0,1-6.362-.972" transform="translate(-106.257 -70.956)" fill="#fff"/>
  </g>
  <g id="Group_44192" data-name="Group 44192" transform="translate(79.372 58.307)">
    <path id="Path_20228" data-name="Path 20228" d="M116.981,76.354c.072,0,.072-.032.06-.055l-1.047-2.388c-.035-.078-.06-.057-.083,0L114.9,76.3c-.012.035.012.055.047.055Zm-2.378.9c-.06,0-.083.02-.105.078l-.37.915a2.4,2.4,0,0,0-.192.715c0,.21.108.312.357.333.132.023.322.033.419.043.177,0,.212.057.212.113,0,.09-.093.112-.248.112-.535,0-.939-.035-1.569-.035-.13,0-.917.035-1.512.035-.167,0-.237-.045-.237-.112,0-.088.083-.113.227-.113a3.1,3.1,0,0,0,.38-.043c.415-.078.654-.423.9-.96l3.175-6.744c.227-.48.357-.645.489-.645s.223.157.427.557c.308.627,2.308,4.9,3.116,6.6.4.87.665,1.14,1.082,1.2a2.39,2.39,0,0,0,.382.043c.153,0,.223.047.223.113s-.083.112-.308.112c-1.165,0-2.521-.022-3.281-.035-.19,0-.262-.033-.262-.1s.058-.112.167-.135c.13-.022.177-.1.142-.2l-.8-1.772a.1.1,0,0,0-.1-.068Z" transform="translate(-111.357 -70.942)" fill="#fff"/>
  </g>
  <g id="Group_44193" data-name="Group 44193" transform="translate(87.806 58.351)">
    <path id="Path_20229" data-name="Path 20229" d="M121.748,76.307c0,.867,0,1.907.06,2.376.022.292.107.525.462.582.157.022.3.033.512.053.19.013.238.047.238.125s-.058.1-.273.1c-.809,0-1.962-.032-2.152-.032s-1.356.032-1.749.032c-.19,0-.272-.02-.272-.112,0-.077.093-.112.238-.112.118-.01.248-.02.38-.043.26-.045.345-.29.382-.614.045-.469.068-1.272.068-2.354V71.928c-.462,0-1.2-.012-1.794.022-.667.035-.929.178-1.082.57a2.313,2.313,0,0,0-.108.257c-.023.088-.06.178-.142.178-.108,0-.108-.09-.1-.222.047-.459.177-1.06.262-1.486.023-.168.06-.28.13-.28s.13.035.405.088a9.687,9.687,0,0,0,1.319.078h5.174a5.152,5.152,0,0,0,.749-.043,2.881,2.881,0,0,1,.37-.068c.105,0,.118.068.118.347,0,.157-.073,1.194-.083,1.474-.012.157-.048.223-.12.223-.1,0-.118-.067-.132-.2a1.628,1.628,0,0,0-.023-.223c-.047-.343-.225-.612-.927-.657-.392-.035-1.012-.057-1.914-.057Z" transform="translate(-116.415 -70.968)" fill="#fff"/>
  </g>
  <g id="Group_44194" data-name="Group 44194" transform="translate(96.929 58.484)">
    <path id="Path_20230" data-name="Path 20230" d="M122.936,74.286c0-1.731,0-2.054-.035-2.413-.025-.312-.155-.514-.417-.557a2.265,2.265,0,0,0-.357-.045c-.142,0-.227-.043-.227-.122s.06-.1.262-.1c.477,0,1.641.035,1.736.035s1.512-.035,1.939-.035c.2,0,.262.047.262.112,0,.092-.108.112-.227.112s-.188.012-.343.033c-.308.055-.428.2-.453.6-.035.358-.035.647-.035,2.378v1.966c0,.882.012,1.921.06,2.391.022.288.1.489.452.567a3.722,3.722,0,0,0,.522.055c.2,0,.252.048.252.112s-.062.113-.252.113c-.807,0-2.081-.033-2.186-.033-.062,0-1.309.033-1.712.033-.19,0-.288-.022-.288-.113,0-.077.1-.112.24-.112.118-.01.238-.02.368-.043.25-.033.332-.278.368-.6.047-.469.072-1.272.072-2.366Z" transform="translate(-121.887 -71.048)" fill="#fff"/>
  </g>
  <g id="Group_44195" data-name="Group 44195" transform="translate(102.072 58.329)">
    <path id="Path_20231" data-name="Path 20231" d="M132.6,75.61c0-1.854-.82-3.963-2.926-3.963-1.094,0-2.319.569-2.319,3.216,0,2.109.94,4.13,2.984,4.13.739,0,2.261-.3,2.261-3.383m-7.625-.245c0-2.234,1.6-4.41,5.09-4.41,3.021,0,4.912,1.9,4.912,4.163,0,2.6-1.879,4.59-4.994,4.59-3.508,0-5.009-2.368-5.009-4.343" transform="translate(-124.972 -70.955)" fill="#fff"/>
  </g>
  <g id="Group_44196" data-name="Group 44196" transform="translate(112.765 58.317)">
    <path id="Path_20232" data-name="Path 20232" d="M132.669,71.485c.013-.337.06-.537.2-.537.1,0,.153.033.464.268.5.39,1.117.949,3.841,3.293,1.212,1.049,2.032,1.8,2.354,2.066l-.072-4.187c-.023-.625-.083-.917-.559-1a4.293,4.293,0,0,0-.524-.055c-.155,0-.213-.053-.213-.112,0-.078.108-.112.238-.112.474,0,1.247.033,1.724.033.262,0,.855-.033,1.354-.033.18,0,.262.033.262.1s-.058.122-.2.122a1.231,1.231,0,0,0-.3.035c-.394.043-.512.233-.547.925-.1,2.244-.1,4.478-.143,6.723,0,.569-.083.692-.238.692-.188,0-.557-.268-1.332-.905-.807-.67-1.854-1.552-2.568-2.166-.665-.57-1.854-1.617-2.723-2.411l.118,3.806c.025.8.072,1.107.405,1.215a3.057,3.057,0,0,0,.63.08c.178.012.238.045.238.112,0,.09-.1.112-.287.112-.417,0-.8-.022-1.532-.035-.275,0-1.155.035-1.619.035-.165,0-.262-.022-.262-.112,0-.067.06-.112.227-.112.105-.012.26-.012.392-.032.465-.068.524-.348.56-1.386.06-2.3.033-4.99.105-6.431" transform="translate(-131.385 -70.948)" fill="#fff"/>
  </g>
  <g id="Group_44197" data-name="Group 44197" transform="translate(123.717 58.329)">
    <path id="Path_20233" data-name="Path 20233" d="M138.212,79.395a.4.4,0,0,1-.258-.445,14.328,14.328,0,0,1,.068-1.641c.025-.2.073-.268.145-.268s.093.1.107.188a1.955,1.955,0,0,0,.06.345,1.977,1.977,0,0,0,2.021,1.442c1.129,0,1.474-.547,1.474-1.027s-.093-.86-1.107-1.507l-.734-.48c-1.454-.962-1.857-1.742-1.857-2.726,0-1.282,1.132-2.321,3.035-2.321a7.066,7.066,0,0,1,1.366.11,5,5,0,0,1,.584.137c.118.033.153.065.153.155-.023.358-.047.58-.047,1.574,0,.2-.037.278-.132.278-.058,0-.107-.033-.13-.212a1.523,1.523,0,0,0-.213-.647,1.882,1.882,0,0,0-1.629-.737c-.977,0-1.334.514-1.334,1.027,0,.38.143.817.952,1.327l.607.38c1.664,1.039,2.188,1.732,2.188,2.859a2.254,2.254,0,0,1-1.26,2.021,4.173,4.173,0,0,1-2.067.48,5.062,5.062,0,0,1-1.989-.313" transform="translate(-137.954 -70.955)" fill="#fff"/>
  </g>
  <g id="Group_44198" data-name="Group 44198" transform="translate(0 1.321)">
    <path id="Path_20234" data-name="Path 20234" d="M72.337,41.446c-.118-2.041-.6-3-2.583-3.421a12.165,12.165,0,0,0-2.341-.182c-.66,0-1.019-.118-1.019-.54s.418-.54,1.319-.54H83.806c.839,0,1.259.122,1.259.54s-.36.54-1.08.54a8.891,8.891,0,0,0-1.741.182c-1.622.3-2.1,1.321-2.221,3.421-.12,1.921.06,17.867.06,20.87a32.2,32.2,0,0,1-1.442,10.627c-1.26,3.661-4.442,7.8-10.206,11.348a33.288,33.288,0,0,1-3,1.561,2.705,2.705,0,0,1-1.2.36.473.473,0,0,1-.48-.48c0-.3.3-.54,1.321-1.082a12.54,12.54,0,0,0,2.883-2.281c4.563-4.623,4.5-10.626,4.5-22.394,0,0,0-16.608-.12-18.529" transform="translate(-63.752 -36.763)" fill="#fff"/>
  </g>
  <g id="Group_44199" data-name="Group 44199" transform="translate(24.724 1.321)">
    <path id="Path_20235" data-name="Path 20235" d="M91.729,58.918c0,.66.12.9.54,1.082a15.9,15.9,0,0,0,4.563.6c2.4,0,3.181-.238,4.263-1.02,1.8-1.321,3.541-4.083,3.541-9.005,0-8.527-5.642-10.988-9.185-10.988a13.192,13.192,0,0,0-3.183.24c-.42.12-.54.36-.54.842Zm-7.084-4.742c0-9.127,0-10.809-.122-12.73-.118-2.041-.6-3-2.581-3.421a12.17,12.17,0,0,0-2.339-.182c-.662,0-1.022-.118-1.022-.539s.42-.542,1.32-.542H96.593c3.783,0,7.806.362,11.048,2.583a10.405,10.405,0,0,1,4.082,8.225c0,4.442-1.861,8.527-7.925,13.448,5.344,6.726,9.485,12.068,13.028,15.791,3.363,3.483,5.824,3.9,6.726,4.082a9.475,9.475,0,0,0,1.679.182c.482,0,.72.18.72.48,0,.48-.419.6-1.14.6h-5.7c-3.36,0-4.862-.3-6.424-1.14-2.581-1.381-4.864-4.2-8.223-8.825-2.4-3.3-5.165-7.384-5.946-8.285a1.252,1.252,0,0,0-1.08-.42L92.21,63.36c-.3,0-.48.122-.48.482v.84c0,5.584,0,10.326.3,12.85.18,1.739.54,3.06,2.341,3.3a27.694,27.694,0,0,0,2.943.242c.48,0,.72.18.72.48,0,.42-.42.6-1.2.6H80.682c-.78,0-1.2-.178-1.2-.6,0-.3.24-.48.96-.48a9.768,9.768,0,0,0,2.161-.242c1.2-.24,1.5-1.561,1.742-3.3.3-2.524.3-7.266.3-12.79Z" transform="translate(-78.581 -36.763)" fill="#fff"/>
  </g>
  <g id="Group_44200" data-name="Group 44200" transform="translate(67.172)">
    <path id="Path_20236" data-name="Path 20236" d="M115.208,37.533c.182-1.022.54-1.562,1.02-1.562s.84.3,1.622,1.862l16.39,33.861,16.331-34.281c.48-.962.78-1.442,1.322-1.442s.9.6,1.079,1.862l5.464,37.1c.54,3.781,1.14,5.524,2.941,6.062a12.033,12.033,0,0,0,3.723.6c.54,0,.962.06.962.42,0,.48-.722.66-1.562.66-1.5,0-9.785-.18-12.188-.36-1.381-.12-1.741-.3-1.741-.66,0-.3.24-.48.66-.662.358-.12.54-.9.3-2.581L147.93,52h-.242L134.6,79.259c-1.381,2.823-1.681,3.363-2.221,3.363s-1.14-1.2-2.1-3c-1.439-2.763-6.182-11.95-6.9-13.63-.542-1.26-4.143-8.825-6.244-13.328h-.242l-3.121,23.9a23.745,23.745,0,0,0-.18,2.821c0,1.142.78,1.682,1.8,1.921a11.612,11.612,0,0,0,2.521.3c.479,0,.9.12.9.42,0,.54-.54.66-1.439.66H105.12c-.6,0-1.08-.12-1.08-.66,0-.3.36-.42.96-.42a7.727,7.727,0,0,0,1.8-.18c1.681-.36,2.161-2.7,2.461-4.743Z" transform="translate(-104.04 -35.971)" fill="#fff"/>
  </g>
  <g id="Group_44201" data-name="Group 44201" transform="translate(37.011 78.713)">
    <path id="Path_20237" data-name="Path 20237" d="M87.022,86.486c0-1.821-.013-2.042-.035-2.4-.025-.325-.13-.514-.43-.58-.105-.023-.272-.023-.393-.035-.153-.01-.213-.055-.213-.122s.073-.1.263-.1c.679,0,1.249.033,1.771.033l3.353-.01a4.545,4.545,0,0,0,.644-.045.83.83,0,0,1,.19-.043c.06,0,.072.043.072.1s-.023.17-.06.494c-.035.222-.058.612-.1,1.194,0,.088-.048.157-.118.157s-.107-.057-.12-.157a1.223,1.223,0,0,0-.06-.39c-.058-.258-.213-.4-.784-.447-.393-.033-1.427-.057-1.784-.057-.072,0-.1.033-.1.112v2.456c0,.078.012.135.1.135.335.012,1.3,0,1.726-.012.582-.023.735-.055.865-.257.073-.1.108-.145.168-.145s.07.068.07.133c0,.112-.058.514-.093.949-.013.258-.013.8-.013.929,0,.143-.037.212-.107.212s-.107-.08-.13-.18-.025-.168-.035-.257c-.048-.322-.215-.514-.8-.547-.333-.022-1.309-.043-1.676-.043-.06,0-.072.053-.072.145v.77c0,.38-.01,1.037,0,1.462.012.782.18.96,1.5.96a3.476,3.476,0,0,0,1.105-.135c.332-.122.475-.368.584-.88.023-.135.07-.2.142-.2.1,0,.108.112.108.248a8.721,8.721,0,0,1-.19,1.494c-.085.292-.168.3-.607.3-1.641,0-2.534-.068-3.783-.068-.557,0-1.059.033-1.712.033-.213,0-.285-.033-.285-.113,0-.053.058-.112.238-.112a2.266,2.266,0,0,0,.357-.043c.333-.045.38-.467.405-1.172.022-.445.035-1.1.035-1.8Z" transform="translate(-85.95 -83.181)" fill="#fff"/>
  </g>
  <g id="Group_44202" data-name="Group 44202" transform="translate(44.739 78.625)">
    <path id="Path_20238" data-name="Path 20238" d="M90.847,91.566a.4.4,0,0,1-.262-.445,13.312,13.312,0,0,1,.072-1.641c.023-.2.07-.268.142-.268s.1.1.107.19a1.954,1.954,0,0,0,2.081,1.786c1.129,0,1.476-.549,1.476-1.027s-.1-.86-1.109-1.507l-.734-.48c-1.452-.962-1.857-1.742-1.857-2.726,0-1.282,1.13-2.319,3.031-2.319a7.076,7.076,0,0,1,1.369.108,5.671,5.671,0,0,1,.584.137c.118.033.155.065.155.157-.025.357-.048.579-.048,1.572,0,.2-.035.278-.13.278-.06,0-.108-.033-.132-.21a1.522,1.522,0,0,0-.213-.649,1.882,1.882,0,0,0-1.629-.737c-.975,0-1.332.514-1.332,1.027,0,.38.143.817.95,1.329l.607.378c1.664,1.039,2.189,1.732,2.189,2.859A2.251,2.251,0,0,1,94.9,91.4a4.179,4.179,0,0,1-2.069.48,5.032,5.032,0,0,1-1.986-.313" transform="translate(-90.585 -83.128)" fill="#fff"/>
  </g>
  <g id="Group_44203" data-name="Group 44203" transform="translate(50.804 78.645)">
    <path id="Path_20239" data-name="Path 20239" d="M99.555,88.479c0,.869,0,1.909.06,2.376.023.292.108.525.464.582.153.023.3.033.512.055.19.012.238.045.238.125s-.06.1-.275.1c-.807,0-1.962-.033-2.152-.033s-1.354.033-1.747.033c-.19,0-.273-.022-.273-.112s.1-.112.237-.112c.12-.012.252-.022.38-.045.263-.045.347-.29.382-.612.048-.47.07-1.274.07-2.356V84.1c-.462,0-1.2-.01-1.794.023-.665.033-.927.178-1.082.569a2.363,2.363,0,0,0-.107.257c-.025.09-.06.178-.143.178-.107,0-.107-.088-.1-.222.047-.459.178-1.06.263-1.486.022-.168.058-.28.13-.28s.128.035.4.09a10.023,10.023,0,0,0,1.321.077h5.174a5.125,5.125,0,0,0,.747-.043,3.285,3.285,0,0,1,.37-.068c.105,0,.118.068.118.347,0,.157-.072,1.194-.083,1.474-.012.157-.048.223-.12.223-.1,0-.118-.067-.128-.2a2.033,2.033,0,0,0-.027-.223c-.045-.345-.225-.614-.925-.659-.393-.033-1.012-.057-1.916-.057Z" transform="translate(-94.223 -83.14)" fill="#fff"/>
  </g>
  <g id="Group_44204" data-name="Group 44204" transform="translate(58.762 85.301)">
    <path id="Path_20240" data-name="Path 20240" d="M99,88.126a.983.983,0,0,1,1.037-.994.961.961,0,0,1,1.034.959A1.015,1.015,0,0,1,100.02,89.1.981.981,0,0,1,99,88.126" transform="translate(-98.996 -87.132)" fill="#fff"/>
  </g>
  <g id="Group_44205" data-name="Group 44205" transform="translate(64.808 78.498)">
    <path id="Path_20241" data-name="Path 20241" d="M106.037,88.381c0,1.1-.013,2.042.047,2.488.048.357.132.582.524.637.178.023.368.023.477.033s.19.057.19.123-.037.112-.225.112c-.894,0-1.916-.035-2.022-.035s-1.4.035-2.164.035c-.18,0-.227-.045-.227-.112,0-.045.037-.1.19-.123.19-.01.358-.02.584-.043.44-.057.522-.29.547-.715.025-.49.035-1.3.035-2.4V85.331c0-.322-.035-.5-.19-.5a2.852,2.852,0,0,0-.749.167,1.345,1.345,0,0,1-.322.09c-.058,0-.108-.023-.108-.077s.05-.112.132-.157c.725-.38,2.273-1.287,2.926-1.664a.726.726,0,0,1,.308-.137c.1,0,.108.08.108.192,0,.088-.06,1.239-.06,2.946Z" transform="translate(-102.622 -83.052)" fill="#fff"/>
  </g>
  <g id="Group_44206" data-name="Group 44206" transform="translate(70.012 78.623)">
    <path id="Path_20242" data-name="Path 20242" d="M112.592,86.453c0,3.116-3.021,5.025-5.279,5.437a1.914,1.914,0,0,1-.322.043c-.107,0-.155-.02-.155-.077s.048-.088.227-.167A5.754,5.754,0,0,0,110.4,86.6c0-1.831-.512-2.858-1.474-2.858-.715,0-1.167.614-1.167,1.654,0,1.517.787,2.1,1.5,2.1a1.478,1.478,0,0,0,.43-.045,1.835,1.835,0,0,1,.248-.045c.058,0,.1.013.1.068a.233.233,0,0,1-.058.112,2.442,2.442,0,0,1-1.749.67,2.268,2.268,0,0,1-2.486-2.324c0-1.449,1.286-2.8,3.448-2.8a3.166,3.166,0,0,1,3.4,3.326" transform="translate(-105.743 -83.127)" fill="#fff"/>
  </g>
  <g id="Group_44207" data-name="Group 44207" transform="translate(77.846 78.625)">
    <path id="Path_20243" data-name="Path 20243" d="M115.175,85.067a1.3,1.3,0,0,0-1.344-1.327,1.083,1.083,0,0,0-1.225,1.049c0,.627.582,1.129,1.879,1.7a1.64,1.64,0,0,0,.69-1.419m-2.939,4.49a1.69,1.69,0,0,0,1.726,1.7,1.242,1.242,0,0,0,1.4-1.272c0-.905-.939-1.406-2.306-2.121a2.054,2.054,0,0,0-.824,1.7m5.045-.267c0,1.416-1.332,2.589-3.51,2.589-2.069,0-3.33-.892-3.33-2.233,0-1.13,1.022-1.676,2.046-2.077a2.5,2.5,0,0,1-1.642-2.2c0-1.049.857-2.243,3.2-2.243,1.687,0,2.828.735,2.828,1.817,0,1.172-1.115,1.609-1.759,1.842,1.224.6,2.166,1.284,2.166,2.5" transform="translate(-110.442 -83.128)" fill="#fff"/>
  </g>
  <g id="Group_44208" data-name="Group 44208" transform="translate(85.579 78.623)">
    <path id="Path_20244" data-name="Path 20244" d="M115.382,91.577a.469.469,0,0,1-.3-.388,11.116,11.116,0,0,1,.07-1.519c.025-.157.073-.223.145-.223s.118.067.128.2a1.955,1.955,0,0,0,3.866-.278,1.976,1.976,0,0,0-1.879-2.056c-.262-.045-.38-.123-.38-.223,0-.08.13-.133.225-.157.952-.188,1.714-.58,1.714-1.7,0-.884-.512-1.419-1.546-1.419-1.142,0-1.584.647-1.654,1.194-.013.157-.058.247-.143.247s-.107-.09-.118-.235a11.566,11.566,0,0,1-.085-1.2c0-.165.062-.21.215-.278a7.1,7.1,0,0,1,2.486-.423c2.378,0,2.948,1.025,2.948,1.809,0,1.149-1.319,1.7-1.972,1.841-.025.013-.025.033,0,.047,1.022.187,2.378.769,2.378,2.176,0,1.5-1.557,2.881-4.1,2.881a4.709,4.709,0,0,1-2-.3" transform="translate(-115.08 -83.127)" fill="#fff"/>
  </g>
</svg>
