<svg xmlns="http://www.w3.org/2000/svg" width="101.143" height="68.395" viewBox="0 0 101.143 68.395">
  <g id="Group_44213" data-name="Group 44213" transform="translate(-63.752 -35.971)">
    <g id="Group_44238" data-name="Group 44238" transform="translate(63.752 35.971)">
      <g id="Group_44213-2" data-name="Group 44213" transform="translate(0.158 45.631)">
        <path id="Path_20245" data-name="Path 20245" d="M65.046,76.841a3.076,3.076,0,0,1-1.173-2.568,3.141,3.141,0,0,1,1.154-2.419,4.6,4.6,0,0,1,3.079-.9,8.958,8.958,0,0,1,1.321.1,8.556,8.556,0,0,0,.92.115c.1.008.1.061.1.112,0,.069-.029.279-.046.576s-.01.8-.029,1.023c-.009.13-.029.209-.111.209s-.1-.061-.112-.183a1.253,1.253,0,0,0-.355-.857,2.714,2.714,0,0,0-1.878-.549,2.069,2.069,0,0,0-1.367.419,2.772,2.772,0,0,0-.819,2.209c0,1.8,1.041,3.005,2.6,3.005a1.987,1.987,0,0,0,1.6-.446,1.289,1.289,0,0,0,.305-.586c.048-.181.077-.243.15-.243s.076.085.076.157a12,12,0,0,1-.2,1.326c-.021.132-.085.2-.241.254a6.435,6.435,0,0,1-4.978-.76" transform="translate(-63.873 -70.956)" fill="#004a9c"/>
      </g>
      <g id="Group_44214" data-name="Group 44214" transform="translate(7.534 45.63)">
        <path id="Path_20246" data-name="Path 20246" d="M75.491,74.6c0-1.45-.642-3.1-2.289-3.1-.854,0-1.813.445-1.813,2.516,0,1.65.736,3.231,2.335,3.231.576,0,1.767-.237,1.767-2.646M69.528,74.4c0-1.748,1.247-3.45,3.982-3.45,2.363,0,3.842,1.484,3.842,3.257A3.565,3.565,0,0,1,73.446,77.8c-2.746,0-3.918-1.852-3.918-3.4" transform="translate(-69.528 -70.955)" fill="#004a9c"/>
      </g>
      <g id="Group_44215" data-name="Group 44215" transform="translate(15.592 45.611)">
        <path id="Path_20247" data-name="Path 20247" d="M84.5,76.557c.074.567.167.786.475.874a2.731,2.731,0,0,0,.53.077c.12,0,.176.027.176.087s-.073.089-.223.089c-.772,0-1.525,0-2.586-.053-.175-.008-.213-.061-.213-.1s.038-.069.1-.087c.149-.051.158-.1.12-.5l-.334-3.129-1.916,3.373c-.252.445-.308.5-.382.5-.1,0-.158-.089-.417-.472-.327-.489-.895-1.484-1.248-2.044-.157-.253-.567-.969-.745-1.266l-.269,2.464a6.4,6.4,0,0,0-.037.7.344.344,0,0,0,.325.4,2.557,2.557,0,0,0,.346.042c.138,0,.167.027.167.08,0,.07-.038.1-.188.1-.408,0-.921-.026-1.2-.026s-.725.026-1.07.026c-.093,0-.2,0-.2-.089,0-.05.056-.087.187-.087.074-.008.175-.008.278-.025.271-.052.364-.254.457-.83l.846-5.371c.037-.263.1-.342.194-.342s.167.089.363.357l2.661,4.184,2.549-4.227c.15-.226.224-.314.318-.314s.149.123.176.342Z" transform="translate(-75.706 -70.941)" fill="#004a9c"/>
      </g>
      <g id="Group_44216" data-name="Group 44216" transform="translate(25.173 45.611)">
        <path id="Path_20248" data-name="Path 20248" d="M91.843,76.557c.074.567.167.786.475.874a2.744,2.744,0,0,0,.53.077c.121,0,.176.027.176.087s-.074.089-.222.089c-.773,0-1.525,0-2.586-.053-.176-.008-.214-.061-.214-.1s.038-.069.1-.087c.15-.051.158-.1.121-.5l-.334-3.129-1.917,3.373c-.252.445-.307.5-.381.5-.1,0-.159-.089-.42-.472-.325-.489-.892-1.484-1.246-2.044-.158-.253-.567-.969-.745-1.266l-.269,2.464a6.184,6.184,0,0,0-.038.7.344.344,0,0,0,.325.4,2.557,2.557,0,0,0,.346.042c.138,0,.167.027.167.08,0,.07-.038.1-.187.1-.408,0-.921-.026-1.2-.026s-.725.026-1.07.026c-.093,0-.2,0-.2-.089,0-.05.056-.087.187-.087.074-.008.176-.008.278-.025.271-.052.364-.254.457-.83l.848-5.371c.035-.263.1-.342.194-.342s.167.089.363.357l2.661,4.184,2.549-4.227c.149-.226.223-.314.317-.314s.149.123.177.342Z" transform="translate(-83.052 -70.941)" fill="#004a9c"/>
      </g>
      <g id="Group_44217" data-name="Group 44217" transform="translate(34.765 45.751)">
        <path id="Path_20249" data-name="Path 20249" d="M92.974,74.892c0,1.205.2,1.711.706,2.052a1.833,1.833,0,0,0,1.954-.077c.523-.42.523-1.337.523-2.237V73.581c0-1.283,0-1.51-.021-1.791-.017-.331-.091-.479-.4-.532-.1-.016-.158-.016-.344-.035-.121,0-.167-.034-.167-.087s.046-.087.213-.087c.531,0,1.1.026,1.247.026.168,0,.772-.026,1.229-.026.14,0,.2.026.2.087,0,.044-.038.08-.158.087a2.072,2.072,0,0,0-.288.035c-.252.044-.326.176-.353.532-.02.28-.029.507-.029,1.791v.857a3.156,3.156,0,0,1-.95,2.759,3.085,3.085,0,0,1-1.936.578,3.467,3.467,0,0,1-2.212-.586,2.626,2.626,0,0,1-.866-2.28V73.581c0-1.354,0-1.6-.027-1.877-.02-.245-.074-.359-.29-.42a2.364,2.364,0,0,0-.4-.061c-.14-.008-.2-.043-.2-.1s.074-.078.252-.078c.4,0,1.34.026,1.424.026s1.18-.026,1.516-.026c.157,0,.2.026.2.078,0,.07-.047.089-.167.1-.085.009-.214.02-.307.035-.261.053-.307.236-.325.515s-.029.69-.029,1.808Z" transform="translate(-90.406 -71.048)" fill="#004a9c"/>
      </g>
      <g id="Group_44218" data-name="Group 44218" transform="translate(42.691 45.62)">
        <path id="Path_20250" data-name="Path 20250" d="M97.487,71.368c.01-.263.046-.42.158-.42.074,0,.121.026.363.21.391.305.875.742,3.005,2.576.95.82,1.591,1.406,1.842,1.616l-.056-3.275c-.018-.489-.064-.717-.436-.779a3.377,3.377,0,0,0-.411-.043c-.12,0-.167-.042-.167-.087,0-.061.085-.087.185-.087.374,0,.977.026,1.349.026.206,0,.67-.026,1.062-.026.14,0,.2.026.2.08s-.047.1-.158.1a.954.954,0,0,0-.232.027c-.308.034-.4.183-.429.724-.074,1.756-.074,3.5-.111,5.259,0,.445-.067.541-.187.541-.15,0-.437-.21-1.042-.708-.631-.524-1.45-1.214-2.009-1.694-.522-.446-1.45-1.265-2.131-1.886l.093,2.978c.02.629.057.866.317.951a2.393,2.393,0,0,0,.494.063c.14.009.185.035.185.087,0,.07-.074.087-.223.087-.326,0-.623-.017-1.2-.027-.214,0-.9.027-1.263.027-.132,0-.206-.017-.206-.087,0-.052.046-.087.177-.087.082-.009.2-.009.305-.025.365-.053.411-.273.438-1.084.047-1.8.029-3.9.083-5.031" transform="translate(-96.483 -70.948)" fill="#004a9c"/>
      </g>
      <g id="Group_44219" data-name="Group 44219" transform="translate(51.417 45.751)">
        <path id="Path_20251" data-name="Path 20251" d="M103.993,73.581c0-1.354,0-1.607-.029-1.887-.02-.244-.121-.4-.326-.436a1.77,1.77,0,0,0-.279-.035c-.111,0-.177-.034-.177-.1s.047-.08.2-.08c.373,0,1.283.027,1.358.027s1.184-.027,1.517-.027c.159,0,.206.037.206.087,0,.072-.085.087-.177.087s-.149.009-.27.026c-.241.043-.335.158-.353.472-.027.28-.027.506-.027,1.86v1.538c0,.69.009,1.5.046,1.87.018.226.074.382.353.443a2.908,2.908,0,0,0,.41.043c.158,0,.2.038.2.087s-.048.089-.2.089c-.633,0-1.628-.026-1.71-.026-.048,0-1.024.026-1.341.026-.149,0-.224-.017-.224-.089s.076-.087.187-.087c.093-.008.188-.016.287-.034.2-.026.262-.218.29-.472.038-.367.057-1,.057-1.851Z" transform="translate(-103.173 -71.048)" fill="#004a9c"/>
      </g>
      <g id="Group_44220" data-name="Group 44220" transform="translate(55.439 45.631)">
        <path id="Path_20252" data-name="Path 20252" d="M107.431,76.841a3.078,3.078,0,0,1-1.174-2.568,3.139,3.139,0,0,1,1.156-2.419,4.6,4.6,0,0,1,3.079-.9,8.974,8.974,0,0,1,1.321.1,8.556,8.556,0,0,0,.92.115c.1.008.1.061.1.112,0,.069-.029.279-.047.576s-.01.8-.029,1.023c-.008.13-.027.209-.111.209s-.1-.061-.112-.183a1.25,1.25,0,0,0-.353-.857,2.718,2.718,0,0,0-1.879-.549,2.071,2.071,0,0,0-1.367.419,2.777,2.777,0,0,0-.819,2.209c0,1.8,1.042,3.005,2.6,3.005a1.982,1.982,0,0,0,1.6-.446,1.289,1.289,0,0,0,.307-.586c.048-.181.076-.243.149-.243s.077.085.077.157a11.757,11.757,0,0,1-.206,1.326c-.02.132-.083.2-.241.254a6.432,6.432,0,0,1-4.977-.76" transform="translate(-106.257 -70.956)" fill="#004a9c"/>
      </g>
      <g id="Group_44221" data-name="Group 44221" transform="translate(62.091 45.613)">
        <path id="Path_20253" data-name="Path 20253" d="M115.756,75.176c.056,0,.056-.025.047-.043l-.819-1.868c-.027-.061-.047-.044-.065,0l-.79,1.868c-.009.027.009.043.037.043Zm-1.86.7c-.047,0-.065.016-.082.061l-.29.716a1.875,1.875,0,0,0-.15.56c0,.164.085.244.279.261.1.018.252.026.327.034.138,0,.166.044.166.089,0,.07-.073.087-.194.087-.419,0-.734-.027-1.227-.027-.1,0-.717.027-1.183.027-.13,0-.185-.035-.185-.087,0-.069.065-.089.177-.089a2.428,2.428,0,0,0,.3-.034c.325-.061.511-.331.707-.751l2.483-5.276c.177-.376.279-.5.382-.5s.175.123.334.436c.241.49,1.805,3.833,2.438,5.161.316.681.52.892.846.935a1.871,1.871,0,0,0,.3.034c.12,0,.175.037.175.089s-.065.087-.241.087c-.912,0-1.972-.017-2.567-.027-.149,0-.2-.026-.2-.077s.046-.087.13-.106c.1-.017.138-.078.111-.158L116.1,75.93a.075.075,0,0,0-.076-.053Z" transform="translate(-111.357 -70.942)" fill="#004a9c"/>
      </g>
      <g id="Group_44222" data-name="Group 44222" transform="translate(68.689 45.646)">
        <path id="Path_20254" data-name="Path 20254" d="M120.587,75.144c0,.678,0,1.492.047,1.859.017.228.083.411.361.455.123.017.233.026.4.042.149.01.187.037.187.1s-.046.077-.214.077c-.633,0-1.535-.025-1.684-.025s-1.06.025-1.368.025c-.149,0-.213-.016-.213-.087s.073-.087.187-.087c.093-.008.194-.016.3-.034.2-.035.27-.227.3-.48.035-.367.053-1,.053-1.842V71.719c-.361,0-.939-.009-1.4.017-.522.027-.726.14-.846.446a1.809,1.809,0,0,0-.085.2c-.018.069-.047.14-.111.14-.085,0-.085-.07-.074-.173.037-.359.138-.83.2-1.162.018-.132.047-.219.1-.219s.1.027.317.069a7.575,7.575,0,0,0,1.032.061h4.047a4.03,4.03,0,0,0,.586-.034,2.253,2.253,0,0,1,.29-.053c.082,0,.093.053.093.271,0,.123-.057.934-.065,1.153-.009.123-.038.175-.094.175-.076,0-.093-.052-.1-.158a1.272,1.272,0,0,0-.018-.175c-.037-.269-.176-.479-.725-.514-.307-.027-.792-.044-1.5-.044Z" transform="translate(-116.415 -70.968)" fill="#004a9c"/>
      </g>
      <g id="Group_44223" data-name="Group 44223" transform="translate(75.825 45.751)">
        <path id="Path_20255" data-name="Path 20255" d="M122.707,73.581c0-1.354,0-1.607-.027-1.887-.02-.244-.121-.4-.326-.436a1.77,1.77,0,0,0-.279-.035c-.111,0-.177-.034-.177-.1s.047-.08.2-.08c.373,0,1.283.027,1.358.027s1.183-.027,1.517-.027c.159,0,.2.037.2.087,0,.072-.085.087-.177.087s-.147.009-.269.026c-.241.043-.335.158-.355.472-.027.28-.027.506-.027,1.86v1.538c0,.69.009,1.5.047,1.87.017.226.074.382.353.443a2.91,2.91,0,0,0,.408.043c.159,0,.2.038.2.087s-.048.089-.2.089c-.631,0-1.628-.026-1.71-.026-.048,0-1.024.026-1.34.026-.149,0-.226-.017-.226-.089s.077-.087.188-.087c.093-.008.187-.016.288-.034.2-.026.26-.218.288-.472.037-.367.056-1,.056-1.851Z" transform="translate(-121.887 -71.048)" fill="#004a9c"/>
      </g>
      <g id="Group_44224" data-name="Group 44224" transform="translate(79.849 45.63)">
        <path id="Path_20256" data-name="Path 20256" d="M130.937,74.6c0-1.45-.642-3.1-2.289-3.1-.856,0-1.814.445-1.814,2.516,0,1.65.736,3.231,2.335,3.231.578,0,1.769-.237,1.769-2.646m-5.965-.192c0-1.748,1.248-3.45,3.982-3.45,2.363,0,3.842,1.484,3.842,3.257A3.565,3.565,0,0,1,128.89,77.8c-2.744,0-3.918-1.852-3.918-3.4" transform="translate(-124.972 -70.955)" fill="#004a9c"/>
      </g>
      <g id="Group_44225" data-name="Group 44225" transform="translate(88.214 45.62)">
        <path id="Path_20257" data-name="Path 20257" d="M132.389,71.368c.01-.263.047-.42.159-.42.074,0,.12.026.363.21.391.305.874.742,3.005,2.576.948.82,1.59,1.406,1.842,1.616l-.056-3.275c-.018-.489-.065-.717-.437-.779a3.356,3.356,0,0,0-.41-.043c-.121,0-.167-.042-.167-.087,0-.061.085-.087.187-.087.37,0,.976.026,1.349.026.2,0,.669-.026,1.059-.026.141,0,.2.026.2.08s-.046.1-.158.1a.963.963,0,0,0-.232.027c-.308.034-.4.183-.428.724-.074,1.756-.074,3.5-.112,5.259,0,.445-.065.541-.187.541-.147,0-.436-.21-1.042-.708-.631-.524-1.45-1.214-2.009-1.694-.52-.446-1.45-1.265-2.13-1.886l.093,2.978c.02.629.056.866.317.951a2.391,2.391,0,0,0,.493.063c.14.009.187.035.187.087,0,.07-.076.087-.224.087-.326,0-.623-.017-1.2-.027-.215,0-.9.027-1.266.027-.129,0-.2-.017-.2-.087,0-.052.047-.087.177-.087.082-.009.2-.009.307-.025.364-.053.41-.273.438-1.084.047-1.8.026-3.9.082-5.031" transform="translate(-131.385 -70.948)" fill="#004a9c"/>
      </g>
      <g id="Group_44226" data-name="Group 44226" transform="translate(96.781 45.63)">
        <path id="Path_20258" data-name="Path 20258" d="M138.156,77.557a.317.317,0,0,1-.2-.348,11.212,11.212,0,0,1,.053-1.283c.02-.159.057-.21.113-.21s.073.077.083.147a1.527,1.527,0,0,0,.047.27,1.547,1.547,0,0,0,1.581,1.128c.883,0,1.153-.428,1.153-.8s-.073-.673-.866-1.179l-.574-.376c-1.137-.753-1.453-1.363-1.453-2.133,0-1,.886-1.816,2.374-1.816a5.527,5.527,0,0,1,1.068.086,3.911,3.911,0,0,1,.456.107c.093.026.12.051.12.121-.018.28-.037.454-.037,1.231,0,.157-.029.218-.1.218-.046,0-.083-.026-.1-.166a1.191,1.191,0,0,0-.167-.506,1.472,1.472,0,0,0-1.274-.576c-.764,0-1.043.4-1.043.8,0,.3.112.639.745,1.038l.475.3c1.3.813,1.711,1.355,1.711,2.237a1.763,1.763,0,0,1-.986,1.581,3.265,3.265,0,0,1-1.617.376,3.96,3.96,0,0,1-1.556-.245" transform="translate(-137.954 -70.955)" fill="#004a9c"/>
      </g>
      <g id="Group_44227" data-name="Group 44227" transform="translate(0 1.033)">
        <path id="Path_20259" data-name="Path 20259" d="M70.468,40.427c-.093-1.6-.47-2.349-2.02-2.676a9.517,9.517,0,0,0-1.831-.142c-.517,0-.8-.093-.8-.423s.327-.423,1.032-.423H79.44c.656,0,.985.1.985.423s-.282.423-.845.423a6.956,6.956,0,0,0-1.362.142c-1.269.235-1.645,1.033-1.737,2.676-.094,1.5.047,13.977.047,16.326A25.193,25.193,0,0,1,75.4,65.066c-.986,2.864-3.475,6.105-7.984,8.877a26.039,26.039,0,0,1-2.349,1.221,2.116,2.116,0,0,1-.939.282.37.37,0,0,1-.376-.376c0-.235.235-.423,1.033-.846a9.81,9.81,0,0,0,2.255-1.784c3.57-3.617,3.522-8.312,3.522-17.518,0,0,0-12.992-.094-14.495" transform="translate(-63.752 -36.763)" fill="#004a9c"/>
      </g>
      <g id="Group_44228" data-name="Group 44228" transform="translate(19.341 1.033)">
        <path id="Path_20260" data-name="Path 20260" d="M88.867,54.094c0,.517.094.7.423.846a12.435,12.435,0,0,0,3.57.468c1.88,0,2.489-.187,3.335-.8,1.409-1.033,2.77-3.194,2.77-7.045,0-6.67-4.414-8.6-7.185-8.6a10.32,10.32,0,0,0-2.49.188c-.329.094-.423.282-.423.659Zm-5.542-3.709c0-7.14,0-8.456-.1-9.958-.093-1.6-.468-2.349-2.019-2.676a9.521,9.521,0,0,0-1.83-.142c-.518,0-.8-.093-.8-.421s.329-.424,1.033-.424H92.671c2.959,0,6.107.283,8.642,2.02a8.14,8.14,0,0,1,3.193,6.434c0,3.475-1.456,6.67-6.2,10.52,4.18,5.262,7.42,9.44,10.192,12.353,2.631,2.725,4.556,3.052,5.262,3.193a7.413,7.413,0,0,0,1.313.142c.377,0,.563.141.563.376,0,.376-.327.468-.892.468h-4.462c-2.628,0-3.8-.233-5.025-.892-2.019-1.08-3.8-3.287-6.433-6.9-1.879-2.584-4.041-5.777-4.651-6.481a.98.98,0,0,0-.845-.329l-4.086-.1c-.235,0-.376.1-.376.377V58.6c0,4.368,0,8.078.235,10.052.141,1.36.423,2.393,1.831,2.581a21.667,21.667,0,0,0,2.3.189c.376,0,.563.141.563.376,0,.329-.329.468-.939.468H80.224c-.61,0-.939-.14-.939-.468,0-.235.188-.376.751-.376a7.642,7.642,0,0,0,1.69-.189c.94-.188,1.175-1.221,1.363-2.581.235-1.975.235-5.684.235-10.005Z" transform="translate(-78.581 -36.763)" fill="#004a9c"/>
      </g>
      <g id="Group_44229" data-name="Group 44229" transform="translate(52.548)">
        <path id="Path_20261" data-name="Path 20261" d="M112.776,37.193c.142-.8.423-1.222.8-1.222s.657.235,1.269,1.457l12.821,26.489L140.44,37.1c.376-.753.61-1.128,1.034-1.128s.7.47.844,1.457l4.274,29.026c.423,2.958.892,4.321,2.3,4.742a9.413,9.413,0,0,0,2.913.471c.423,0,.753.047.753.329,0,.376-.565.516-1.222.516-1.174,0-7.655-.141-9.534-.282-1.08-.094-1.362-.235-1.362-.517,0-.235.188-.376.516-.518.28-.094.423-.7.235-2.019l-2.817-20.665h-.189L127.946,69.834c-1.08,2.208-1.315,2.631-1.737,2.631s-.892-.939-1.645-2.348c-1.126-2.161-4.836-9.348-5.4-10.663-.424-.986-3.241-6.9-4.885-10.427h-.189l-2.442,18.693a18.575,18.575,0,0,0-.141,2.207c0,.893.61,1.316,1.41,1.5a9.084,9.084,0,0,0,1.972.236c.374,0,.7.094.7.329,0,.423-.423.516-1.126.516h-9.583c-.47,0-.845-.094-.845-.516,0-.235.282-.329.751-.329a6.045,6.045,0,0,0,1.41-.141c1.315-.282,1.69-2.114,1.925-3.711Z" transform="translate(-104.04 -35.971)" fill="#004a9c"/>
      </g>
      <g id="Group_44230" data-name="Group 44230" transform="translate(28.953 61.576)">
        <path id="Path_20262" data-name="Path 20262" d="M86.789,85.766c0-1.424-.01-1.6-.027-1.878-.02-.254-.1-.4-.337-.454-.082-.018-.213-.018-.308-.027-.12-.008-.167-.043-.167-.1s.057-.08.206-.08c.531,0,.977.026,1.385.026l2.623-.008a3.555,3.555,0,0,0,.5-.035.649.649,0,0,1,.149-.034c.047,0,.056.034.056.077s-.018.133-.047.386c-.027.173-.046.479-.074.934,0,.069-.038.123-.093.123s-.083-.044-.094-.123a.957.957,0,0,0-.047-.305c-.046-.2-.167-.314-.613-.35-.308-.026-1.116-.044-1.4-.044-.056,0-.074.026-.074.087v1.921c0,.061.009.106.074.106.262.009,1.013,0,1.35-.009.455-.018.575-.043.677-.2.057-.078.085-.113.132-.113s.055.053.055.1c0,.087-.046.4-.073.742-.01.2-.01.629-.01.726s-.029.166-.083.166-.083-.063-.1-.141-.02-.132-.027-.2c-.038-.252-.168-.4-.625-.428-.261-.017-1.024-.034-1.311-.034-.047,0-.056.042-.056.113v.6c0,.3-.008.811,0,1.144.009.612.141.751,1.173.751a2.719,2.719,0,0,0,.865-.106c.26-.1.372-.288.457-.689.018-.106.055-.159.111-.159.074,0,.085.087.085.194a6.822,6.822,0,0,1-.149,1.169c-.067.228-.132.237-.475.237-1.283,0-1.983-.053-2.959-.053-.436,0-.828.026-1.34.026-.167,0-.223-.026-.223-.089,0-.042.046-.087.187-.087a1.774,1.774,0,0,0,.279-.034c.261-.035.3-.365.317-.917.017-.348.027-.863.027-1.4Z" transform="translate(-85.95 -83.181)" fill="#004a9c"/>
      </g>
      <g id="Group_44231" data-name="Group 44231" transform="translate(34.998 61.507)">
        <path id="Path_20263" data-name="Path 20263" d="M90.79,89.729a.316.316,0,0,1-.2-.348,10.415,10.415,0,0,1,.056-1.283c.018-.159.055-.21.111-.21s.074.077.083.149a1.528,1.528,0,0,0,1.628,1.4c.883,0,1.154-.429,1.154-.8s-.076-.673-.867-1.179l-.574-.376c-1.136-.753-1.453-1.363-1.453-2.133,0-1,.884-1.814,2.371-1.814a5.536,5.536,0,0,1,1.071.085,4.441,4.441,0,0,1,.456.107c.093.026.121.051.121.123-.02.279-.038.453-.038,1.23,0,.157-.027.218-.1.218-.047,0-.085-.026-.1-.164a1.19,1.19,0,0,0-.167-.507,1.472,1.472,0,0,0-1.274-.576c-.763,0-1.042.4-1.042.8,0,.3.112.639.743,1.04l.475.3c1.3.813,1.713,1.355,1.713,2.237a1.761,1.761,0,0,1-.986,1.581,3.269,3.269,0,0,1-1.619.376,3.936,3.936,0,0,1-1.553-.245" transform="translate(-90.585 -83.128)" fill="#004a9c"/>
      </g>
      <g id="Group_44232" data-name="Group 44232" transform="translate(39.743 61.522)">
        <path id="Path_20264" data-name="Path 20264" d="M98.394,87.316c0,.68,0,1.493.047,1.859.018.228.085.411.363.455.12.018.232.026.4.043.149.009.187.035.187.1s-.047.077-.215.077c-.631,0-1.535-.026-1.684-.026s-1.059.026-1.367.026c-.149,0-.214-.017-.214-.087s.074-.087.185-.087c.094-.009.2-.017.3-.035.206-.035.271-.227.3-.479.038-.368.055-1,.055-1.843V83.891c-.361,0-.938-.008-1.4.018-.52.026-.725.14-.846.445a1.848,1.848,0,0,0-.083.2c-.02.07-.047.14-.112.14-.083,0-.083-.069-.074-.173.037-.359.14-.83.206-1.162.017-.132.046-.219.1-.219s.1.027.316.07a7.842,7.842,0,0,0,1.033.06h4.047a4.008,4.008,0,0,0,.584-.034,2.572,2.572,0,0,1,.29-.053c.082,0,.093.053.093.271,0,.123-.056.934-.065,1.153-.009.123-.038.175-.094.175-.074,0-.093-.052-.1-.157a1.59,1.59,0,0,0-.021-.175c-.035-.27-.176-.48-.724-.515-.308-.026-.792-.044-1.5-.044Z" transform="translate(-94.223 -83.14)" fill="#004a9c"/>
      </g>
      <g id="Group_44233" data-name="Group 44233" transform="translate(45.969 66.729)">
        <path id="Path_20265" data-name="Path 20265" d="M99,87.909a.769.769,0,0,1,.811-.777.752.752,0,0,1,.809.75.794.794,0,0,1-.819.786.768.768,0,0,1-.8-.759" transform="translate(-98.996 -87.132)" fill="#004a9c"/>
      </g>
      <g id="Group_44234" data-name="Group 44234" transform="translate(50.698 61.408)">
        <path id="Path_20266" data-name="Path 20266" d="M105.293,87.221c0,.863-.01,1.6.037,1.946.038.279.1.455.41.5.14.018.288.018.373.026s.149.044.149.1-.029.087-.176.087c-.7,0-1.5-.027-1.582-.027s-1.1.027-1.693.027c-.141,0-.177-.035-.177-.087,0-.035.029-.078.149-.1.149-.008.28-.016.456-.034.344-.044.408-.227.428-.56.02-.383.027-1.013.027-1.877V84.835c0-.252-.027-.393-.149-.393a2.231,2.231,0,0,0-.586.13,1.052,1.052,0,0,1-.252.07c-.046,0-.085-.018-.085-.06s.039-.087.1-.123c.567-.3,1.778-1.007,2.289-1.3a.568.568,0,0,1,.241-.107c.074,0,.085.063.085.15,0,.069-.047.969-.047,2.3Z" transform="translate(-102.622 -83.052)" fill="#004a9c"/>
      </g>
      <g id="Group_44235" data-name="Group 44235" transform="translate(54.769 61.505)">
        <path id="Path_20267" data-name="Path 20267" d="M111.1,85.729c0,2.438-2.363,3.931-4.129,4.253a1.5,1.5,0,0,1-.252.034c-.083,0-.121-.016-.121-.06s.038-.069.177-.13a4.5,4.5,0,0,0,2.614-3.983c0-1.432-.4-2.236-1.153-2.236-.56,0-.913.48-.913,1.294,0,1.187.616,1.641,1.173,1.641a1.156,1.156,0,0,0,.337-.035,1.437,1.437,0,0,1,.194-.035c.046,0,.074.01.074.053a.182.182,0,0,1-.046.087,1.91,1.91,0,0,1-1.368.524,1.774,1.774,0,0,1-1.945-1.818c0-1.133,1.006-2.191,2.7-2.191a2.477,2.477,0,0,1,2.661,2.6" transform="translate(-105.743 -83.127)" fill="#004a9c"/>
      </g>
      <g id="Group_44236" data-name="Group 44236" transform="translate(60.898 61.507)">
        <path id="Path_20268" data-name="Path 20268" d="M114.145,84.645a1.02,1.02,0,0,0-1.051-1.038.847.847,0,0,0-.959.82c0,.49.455.883,1.47,1.328a1.283,1.283,0,0,0,.54-1.11m-2.3,3.512a1.322,1.322,0,0,0,1.35,1.326.972.972,0,0,0,1.1-1c0-.708-.734-1.1-1.8-1.659a1.607,1.607,0,0,0-.644,1.328m3.947-.209c0,1.107-1.042,2.026-2.746,2.026-1.619,0-2.6-.7-2.6-1.746,0-.884.8-1.311,1.6-1.625a1.958,1.958,0,0,1-1.285-1.72c0-.82.67-1.754,2.5-1.754,1.32,0,2.212.575,2.212,1.422,0,.917-.873,1.259-1.376,1.441.957.472,1.694,1,1.694,1.958" transform="translate(-110.442 -83.128)" fill="#004a9c"/>
      </g>
      <g id="Group_44237" data-name="Group 44237" transform="translate(66.947 61.505)">
        <path id="Path_20269" data-name="Path 20269" d="M115.316,89.737a.367.367,0,0,1-.232-.3,8.7,8.7,0,0,1,.055-1.188c.02-.123.057-.175.113-.175s.093.052.1.158a1.529,1.529,0,0,0,3.025-.218,1.546,1.546,0,0,0-1.47-1.608c-.2-.035-.3-.1-.3-.175,0-.063.1-.1.176-.123.745-.147,1.341-.454,1.341-1.326,0-.691-.4-1.11-1.209-1.11-.893,0-1.239.506-1.294.934-.01.123-.046.193-.112.193s-.083-.07-.093-.184a9.048,9.048,0,0,1-.067-.935c0-.129.048-.164.168-.218a5.553,5.553,0,0,1,1.945-.331c1.86,0,2.306.8,2.306,1.415,0,.9-1.032,1.328-1.543,1.44-.02.01-.02.026,0,.037.8.146,1.86.6,1.86,1.7,0,1.17-1.218,2.254-3.21,2.254a3.684,3.684,0,0,1-1.563-.237" transform="translate(-115.08 -83.127)" fill="#004a9c"/>
      </g>
    </g>
    <g id="Group_44239" data-name="Group 44239" transform="translate(63.765 100.431)">
      <rect id="Rectangle_1908" data-name="Rectangle 1908" width="23.171" height="1.304" fill="#ffd400"/>
    </g>
    <g id="Group_44240" data-name="Group 44240" transform="translate(141.645 100.431)">
      <rect id="Rectangle_1909" data-name="Rectangle 1909" width="23.171" height="1.304" fill="#ffd400"/>
    </g>
  </g>
</svg>
