<svg xmlns="http://www.w3.org/2000/svg" width="127.231" height="33.933" viewBox="0 0 127.231 33.933">
  <g id="Group_34" data-name="Group 34" transform="translate(-14.345 -13.933)">
    <g id="Group_32" data-name="Group 32" transform="translate(14.345 13.933)">
      <path id="Path_44" data-name="Path 44" d="M14.345,19H24.569c2.347,0,5.1,2.18,6.347,3.393L48.875,42.318V19h6.1v31.81H44.289a8.044,8.044,0,0,1-5.96-2.59L20.415,28.261V50.817h-6.07Z" transform="translate(-14.345 -17.969)" fill="#fff"/>
      <path id="Path_45" data-name="Path 45" d="M477.957,47a100.02,100.02,0,0,1-22.119.478,32.635,32.635,0,0,1-12.488-3.3c-4.905-2.545-6.466-8.278-6.4-13.478.054-4.8,1.484-9.9,5.748-12.686,2.8-1.832,5.793-2.457,8.991-3.022,8.683-1.53,17.36-1.185,25.845-.263v4.532c-10-1.928-20.541-1.451-24.134,3.141a12.294,12.294,0,0,0-2.539,8.089c0,4.315,1.462,10.843,10.215,12.127,5.725.84,11.366.184,16.885-.8Z" transform="translate(-350.726 -13.933)" fill="#fff"/>
    </g>
    <g id="Group_33" data-name="Group 33" transform="translate(60.367 14.969)">
      <path id="Path_46" data-name="Path 46" d="M258.565,46.077c.868.045,14.649.088,19.376,0v4.77c-9.531.373-18.689.523-28.29.127-8.157-.339-9.565-4.445-9.729-8.386V19.008h37.556V23.54H253.2v8.1H275.32V36.06H253.2c-.011,2.392.062,5.1.082,5.587.13,3.088,1.561,4.238,5.284,4.43" transform="translate(-239.921 -19.008)" fill="#fff"/>
    </g>
  </g>
</svg>
